<svg id="Capa_1" enable-background="new 0 0 512 512" height="512" viewBox="0 0 512 512" width="512" xmlns="http://www.w3.org/2000/svg"><g><g><path d="m498.15 207.365c-.38-.04-.76-.05-1.15-.05-52.343 0-427.965 0-482 0-.39 0-.77.01-1.15.05-7.75.58-13.85 7.06-13.85 14.95 0 8.29 6.72 15 15 15h15.72l37.19 237.87c1.14 7.3 7.43 12.69 14.82 12.69h346.54c7.39 0 13.68-5.39 14.82-12.69l37.19-237.87h15.72c8.28 0 15-6.71 15-15 0-7.89-6.1-14.37-13.85-14.95zm-326.17 211.62c-8.25.68-15.5-5.46-16.18-13.71l-9.33-112.89c-.68-8.25 5.46-15.5 13.71-16.18 8.26-.68 15.51 5.46 16.19 13.71l9.33 112.89c.68 8.25-5.46 15.5-13.72 16.18zm99.02-14.95c0 8.28-6.72 15-15 15s-15-6.72-15-15v-112.88c0-8.29 6.72-15 15-15s15 6.71 15 15zm94.53-111.65-9.33 112.89c-.65 7.83-7.21 13.76-14.93 13.76-.42 0-.83-.02-1.25-.05-8.26-.68-14.4-7.93-13.72-16.18l9.33-112.89c.68-8.25 7.93-14.4 16.19-13.71 8.25.68 14.39 7.93 13.71 16.18z"/></g><g><path d="m444.91 177.365h-32.79l-54.4-123.24h-26.13c-8.28 0-15-6.71-15-15 0-8.28 6.72-15 15-15h35.91c5.94 0 11.32 3.51 13.72 8.95z"/><path d="m195.41 39.125c0 8.29-6.72 15-15 15h-26.13l-54.4 123.24h-32.79l63.69-144.29c2.4-5.44 7.78-8.95 13.72-8.95h35.91c8.28 0 15 6.72 15 15z"/></g></g></svg>